<svg width="189" height="189" viewBox="0 0 189 189" fill="none" xmlns="http://www.w3.org/2000/svg">
<path d="M13.4368 133.223L4.94661 162.053L0.369268 177.63C-0.553584 180.768 0.29544 184.127 2.58411 186.416C4.87278 188.705 8.23196 189.554 11.3327 188.668L26.9474 184.053L55.7773 175.563C60.3546 174.234 64.5259 171.909 68.1066 168.771C68.6234 168.328 69.1033 167.848 69.5831 167.368L181.876 55.1127C189.96 47.0285 190.957 34.5885 184.903 25.3969C184.054 24.1049 183.02 22.8498 181.876 21.7054L167.332 7.12439C158.103 -2.10413 143.153 -2.10413 133.924 7.12439L21.6318 119.417C17.7927 123.256 14.9872 128.018 13.4368 133.223ZM30.4173 138.206C31.0449 136.139 32.0784 134.22 33.5181 132.595C33.7396 132.374 33.9242 132.152 34.1456 131.931L118.494 47.6191L141.381 70.5058L57.0693 154.854C55.3343 156.589 53.1564 157.881 50.7939 158.583L42.156 161.13L21.9271 167.073L27.8702 146.844L30.4173 138.206Z" fill="white"/>
</svg>
