<svg width="402" height="360" viewBox="0 0 402 360" fill="none" xmlns="http://www.w3.org/2000/svg">
<g clip-path="url(#clip0_12_43)">
<path d="M35.5063 128.522C23.156 128.552 17.2828 142.373 25.7676 151.567L75.1064 205.202L54.7335 245.316C51.1638 252.345 54.6193 261.232 62.4729 265.221C66.6818 267.358 71.5217 267.716 75.691 266.17L117.246 250.979L160.83 298.32C167.473 305.553 179.421 305.563 184.75 298.402L294.563 150.959C297.774 146.679 297.881 140.773 294.859 135.868C291.837 130.963 286.228 127.821 280.382 127.832L35.5063 128.522ZM53.0834 149.906L239.738 149.396L96.0557 196.301L96.3791 196.954L53.0834 149.906ZM170.932 278L112.351 214.298L252.444 168.55L170.932 278Z" fill="white"/>
</g>
<defs>
<clipPath id="clip0_12_43">
<rect width="402" height="360" fill="white"/>
</clipPath>
</defs>
</svg>
