<svg width="338" height="327" viewBox="0 0 338 327" fill="none" xmlns="http://www.w3.org/2000/svg">
<path d="M168.936 0C174.814 0 180.181 3.32109 182.736 8.62207L226.564 98.8664L324.442 113.3C330.192 114.131 334.983 118.154 336.772 123.711C338.561 129.267 337.092 135.271 333.003 139.358L262.022 209.74L278.761 309.117C279.72 314.865 277.356 320.677 272.564 324.126C267.772 327.575 261.511 327.958 256.4 325.212L168.872 278.461L81.4723 325.148C76.2973 327.894 70.0362 327.511 65.3084 324.062C60.5806 320.613 58.1529 314.801 59.1112 309.053L75.8501 209.676L4.86952 139.358C0.716741 135.271 -0.688815 129.203 1.10007 123.711C2.88896 118.218 7.68063 114.195 13.4306 113.3L111.308 98.8664L155.136 8.62207C157.756 3.32109 163.058 0 168.936 0ZM168.936 50.4551L135.395 119.559C133.158 124.094 128.878 127.287 123.831 128.054L48.2501 139.167L103.131 193.518C106.645 197.03 108.306 202.012 107.475 206.93L94.5056 283.379L161.717 247.485C166.253 245.058 171.683 245.058 176.156 247.485L243.367 283.379L230.461 206.994C229.631 202.076 231.228 197.094 234.806 193.581L289.686 139.23L214.106 128.054C209.122 127.287 204.778 124.158 202.542 119.559L168.936 50.4551Z" fill="white"/>
</svg>
